<?xml version="1.0" encoding="utf-8"?>
<!-- Generator: Adobe Illustrator 16.0.0, SVG Export Plug-In . SVG Version: 6.00 Build 0)  -->
<!DOCTYPE svg PUBLIC "-//W3C//DTD SVG 1.1//EN" "http://www.w3.org/Graphics/SVG/1.1/DTD/svg11.dtd">
<svg version="1.1" id="Layer_1" xmlns="http://www.w3.org/2000/svg" xmlns:xlink="http://www.w3.org/1999/xlink" x="0px" y="0px"
	 width="512px" height="512px" viewBox="0 0 512 512" enable-background="new 0 0 512 512" xml:space="preserve">
<path fill="#808080" d="M429.828,146.479c-42.874,9.475-85.746,18.949-128.621,28.424c22.815-14.789,38.624-40.223,43.036-67.634
	c0.923-3.437,1.369-7.241,1.19-11.436c0.162-3.814-0.218-7.283-0.976-10.467c-6.579-46.382-43.152-79.803-91.346-81.852
	c-51.683-2.201-90.254,43.886-92.315,92.319c-1.292,30.453,14.176,56.34,37.005,72.905c-40.467-12.27-80.93-24.539-121.4-36.809
	c-28.331-8.591-59.638,26.735-40.597,52.808c32.206,44.104,64.42,88.2,96.626,132.3c-21.054,46.157-42.107,92.309-63.157,138.459
	c-17.335,38.005,24.195,69.538,56.461,43.566c40.923-32.95,81.85-65.9,122.78-98.853c41.081,21.247,82.158,42.486,123.239,63.732
	c24.764,12.807,65.982-8.938,52.811-40.597c-18.188-43.714-36.373-87.436-54.563-131.143c31.6-28.549,63.198-57.089,94.802-85.638
	C493.041,181.057,462.983,139.149,429.828,146.479z M253.119,37.169c32.396,0,58.659,26.261,58.659,58.66
	c0,32.398-26.263,58.657-58.659,58.657c-32.399,0-58.662-26.263-58.662-58.657C194.46,63.434,220.723,37.169,253.119,37.169z
	 M244.637,356.562L104.726,469.209l71.23-156.158L72.221,171.017l179.483,54.423l182.313-40.292l-108.861,98.335l60.811,146.161
	L244.637,356.562z"/>
</svg>
